<svg xmlns="http://www.w3.org/2000/svg" viewBox="0 0 602.28 115.04"><defs><style>.cls-1{fill:#231f20;}</style></defs><g id="Layer_2" data-name="Layer 2"><g id="Layer_1-2" data-name="Layer 1"><path class="cls-1" d="M29.86,71.32H52.14a24.16,24.16,0,0,0,10.93-2.61,29.3,29.3,0,0,0,9.09-7.07,33.78,33.78,0,0,0,6.16-10.82,39.93,39.93,0,0,0,2.29-13.56,35.06,35.06,0,0,0-3.89-16.2A32.22,32.22,0,0,0,66.24,9a24.41,24.41,0,0,0-14.1-4.52H3.84v97.39H0V0H52.14a27.68,27.68,0,0,1,16,5.13A36.72,36.72,0,0,1,80,18.88a39.63,39.63,0,0,1,4.43,18.38,47.74,47.74,0,0,1-2.61,16.08,35.57,35.57,0,0,1-7,12.2,31.38,31.38,0,0,1-10.29,7.53,29.36,29.36,0,0,1-12.37,2.68H29.86Zm0-8.85H52.14A18.28,18.28,0,0,0,62.4,59.36,22.27,22.27,0,0,0,70,50.42a29.25,29.25,0,0,0,2.9-13.16,24.84,24.84,0,0,0-6.26-16.72q-6.27-7.26-14.53-7.26H11.52v88.54H7.68v-93H52.14A21.09,21.09,0,0,1,64.3,12.79,28.22,28.22,0,0,1,73.39,23.3a30.18,30.18,0,0,1,3.38,14,33.76,33.76,0,0,1-3.41,15.22,27,27,0,0,1-9,10.63A21.42,21.42,0,0,1,52.14,66.9H29.86Zm0-8.86H52.14a12,12,0,0,0,9.3-4.27q3.81-4.28,3.82-12.08a15.66,15.66,0,0,0-4-10.48q-4-4.65-9.12-4.65H19.19v79.69H15.35V17.71H52.14q6.72,0,11.84,6a20.3,20.3,0,0,1,5.11,13.59q0,9.41-5,15.09a15.36,15.36,0,0,1-12,5.69H29.86Zm-3,48.21H23V26.56H52.14a8.36,8.36,0,0,1,6.53,3.2,11.15,11.15,0,0,1,2.75,7.5q0,11.93-9.28,11.93H29.86V44.76H52.14a5,5,0,0,0,4-1.66c1-1.11,1.44-3.05,1.44-5.84A6.59,6.59,0,0,0,56,32.77,5,5,0,0,0,52.14,31H26.87Z"/><path class="cls-1" d="M121.87,77.22H145a23.55,23.55,0,0,0,13.12-3.93,28.07,28.07,0,0,0,9.62-10.94,33.44,33.44,0,0,0,3.6-15.5,30.34,30.34,0,0,0-3.57-14.42A28.68,28.68,0,0,0,158.1,21.7a23.49,23.49,0,0,0-13.09-4H96.71v84.11H92.87V13.28H145A25.94,25.94,0,0,1,156.61,16a31.33,31.33,0,0,1,9.62,7.25A35.22,35.22,0,0,1,172.73,34a34.58,34.58,0,0,1,2.46,12.85,39.46,39.46,0,0,1-4.27,18.78,30,30,0,0,1-11.46,12.21l8,24H163.4l-7.62-22.2q-1.44.55-3.36,1.11l7.2,21.09h-4.11l-7-20.35a32.2,32.2,0,0,1-3.47.18l6.77,20.17h-4.05L141,81.65h-3.46L144,101.82H140l-6.51-20.17H121.87Zm0-8.85H145a17.22,17.22,0,0,0,13.17-6q5.49-6,5.49-15.5a20.36,20.36,0,0,0-5.6-14.17q-5.59-6.12-13.06-6.12H104.39v75.26h-3.84V22.13H145q9.06,0,15.78,7.41a25,25,0,0,1,6.72,17.31q0,11.07-6.64,18.51T145,72.8H121.87Zm0-8.85H145a10.4,10.4,0,0,0,7.78-3.32q3.21-3.33,3.2-9.35a11.22,11.22,0,0,0-3.33-7.93,10.26,10.26,0,0,0-7.65-3.5H112.06v66.4h-3.83V31H145a13.76,13.76,0,0,1,10.37,4.79,15.79,15.79,0,0,1,4.45,11.07q0,7.82-4.32,12.45A13.79,13.79,0,0,1,145,63.94H121.87Zm-2.13,42.3H115.9v-62H145a7,7,0,0,1,5.07,2.06,6.76,6.76,0,0,1,2.08,5q0,8.24-7.15,8.24H121.87V50.66H145c2.2,0,3.31-1.27,3.31-3.81a2.24,2.24,0,0,0-1-1.81,3.68,3.68,0,0,0-2.32-.77H119.74Z"/><path class="cls-1" d="M185,76.46a54.89,54.89,0,0,1,0-37.82,50.14,50.14,0,0,1,9-15.52,42.57,42.57,0,0,1,13.46-10.39,36.56,36.56,0,0,1,32.78,0,42.72,42.72,0,0,1,13.47,10.39,50.34,50.34,0,0,1,9,15.52,55,55,0,0,1,0,37.82,50.34,50.34,0,0,1-9,15.52,42.72,42.72,0,0,1-13.47,10.39,36.56,36.56,0,0,1-32.78,0A42.57,42.57,0,0,1,194,92,50.14,50.14,0,0,1,185,76.46Zm3.51-36.1a50.25,50.25,0,0,0,0,34.37,45.49,45.49,0,0,0,8.19,14.15A38.68,38.68,0,0,0,209,98.31a33.38,33.38,0,0,0,29.8,0A38.57,38.57,0,0,0,251,88.88a45.49,45.49,0,0,0,8.19-14.15,50.09,50.09,0,0,0,0-34.37A45.55,45.55,0,0,0,251,26.22a38.57,38.57,0,0,0-12.26-9.43,33.38,33.38,0,0,0-29.8,0,38.68,38.68,0,0,0-12.26,9.43A45.55,45.55,0,0,0,188.51,40.36ZM192.06,73a45,45,0,0,1,0-31,40.8,40.8,0,0,1,7.36-12.7,34.89,34.89,0,0,1,11-8.49,30.14,30.14,0,0,1,26.87,0,35,35,0,0,1,11,8.49,40.8,40.8,0,0,1,7.36,12.7,45,45,0,0,1,0,31,40.8,40.8,0,0,1-7.36,12.7,34.79,34.79,0,0,1-11,8.48,30.05,30.05,0,0,1-26.87,0,34.72,34.72,0,0,1-11-8.48A40.8,40.8,0,0,1,192.06,73Zm3.52-29.23a40.06,40.06,0,0,0,0,27.48,36.15,36.15,0,0,0,6.56,11.31A30.92,30.92,0,0,0,212,90.17a26.84,26.84,0,0,0,23.83,0,31.14,31.14,0,0,0,9.81-7.57,36.13,36.13,0,0,0,6.55-11.31,40.06,40.06,0,0,0,0-27.48,36.3,36.3,0,0,0-6.55-11.32,31.25,31.25,0,0,0-9.81-7.56,26.75,26.75,0,0,0-23.83,0,31,31,0,0,0-9.81,7.56A36.32,36.32,0,0,0,195.58,43.81Zm5,29.29A34,34,0,0,1,197,57.55,34,34,0,0,1,200.59,42a29.09,29.09,0,0,1,9.78-11.28,24,24,0,0,1,27,0A29.09,29.09,0,0,1,247.13,42a34,34,0,0,1,3.6,15.56,34,34,0,0,1-3.6,15.55,29,29,0,0,1-9.78,11.29,24,24,0,0,1-27,0A29,29,0,0,1,200.59,73.1Zm7-34.3a27.73,27.73,0,0,0-6.74,18.75,27.73,27.73,0,0,0,6.74,18.75q6.75,7.82,16.29,7.81t16.29-7.81a27.73,27.73,0,0,0,6.74-18.75,27.73,27.73,0,0,0-6.74-18.75Q233.4,31,223.86,31T207.57,38.8Zm2.72,34.4a23.08,23.08,0,0,1-5.62-15.65,23.08,23.08,0,0,1,5.62-15.65,17.45,17.45,0,0,1,27.14,0,23.08,23.08,0,0,1,5.62,15.65,23.08,23.08,0,0,1-5.62,15.65,17.45,17.45,0,0,1-27.14,0ZM213,45a18.45,18.45,0,0,0-4.5,12.51A18.45,18.45,0,0,0,213,70.06a13.92,13.92,0,0,0,21.7,0,18.45,18.45,0,0,0,4.5-12.51A18.45,18.45,0,0,0,234.71,45,13.92,13.92,0,0,0,213,45Z"/><path class="cls-1" d="M272.22,115v-4.43a28.29,28.29,0,0,0,12.44-2.83,31.63,31.63,0,0,0,10.13-7.59,36.26,36.26,0,0,0,6.75-11.35A38.32,38.32,0,0,0,304,75.07V13.28h3.84V75.07a43.27,43.27,0,0,1-2.8,15.5,40.77,40.77,0,0,1-7.57,12.76,35.61,35.61,0,0,1-11.38,8.54A31.85,31.85,0,0,1,272.22,115Zm0-8.86v-4.42A22.2,22.2,0,0,0,289.36,94a27.29,27.29,0,0,0,7-18.88V13.28h3.84V75.07a33.44,33.44,0,0,1-3.71,15.59A29.22,29.22,0,0,1,286.34,102,25.43,25.43,0,0,1,272.22,106.18Zm0-8.85V92.9a15.28,15.28,0,0,0,11.7-5.19,18,18,0,0,0,4.77-12.64V13.28h3.84V75.07a22.67,22.67,0,0,1-5.89,15.74A18.7,18.7,0,0,1,272.22,97.33Zm0-8.85V84.05a8.54,8.54,0,0,0,8.79-9V13.28h3.84V75.07a13.22,13.22,0,0,1-3.68,9.63A12,12,0,0,1,272.22,88.48Z"/><path class="cls-1" d="M321.48,101.82h-3.84V13.28h3.84Zm7.67,0h-3.83V13.28h3.83Zm7.68,0H333V13.28h3.84Zm7.68-22.14h36.73v4.43H344.51v4.43h36.73V93H344.51v4.43h36.73v4.43H340.67V13.28h40.57v4.43H344.51v4.42h36.73v4.43H344.51V31h36.73v4.43H344.51v11h34.6v4.43h-34.6v4.42h34.6V59.7h-34.6v4.43h34.6v4.43h-34.6Z"/><path class="cls-1" d="M463.66,27.18l-3.09,2.64a40.27,40.27,0,0,0-13.19-12.11,33.59,33.59,0,0,0-31.62-.92,38.68,38.68,0,0,0-12.26,9.43,45.34,45.34,0,0,0-8.18,14.14,50.09,50.09,0,0,0,0,34.37,45.28,45.28,0,0,0,8.18,14.15,38.68,38.68,0,0,0,12.26,9.43,33.59,33.59,0,0,0,31.62-.92,40.27,40.27,0,0,0,13.19-12.11l3,2.7a44.22,44.22,0,0,1-14.53,13.38,36.86,36.86,0,0,1-34.81,1A42.57,42.57,0,0,1,400.81,92a50.14,50.14,0,0,1-9-15.52,54.89,54.89,0,0,1,0-37.82,50.14,50.14,0,0,1,9-15.52,42.57,42.57,0,0,1,13.46-10.39,36.44,36.44,0,0,1,16.39-3.88,36.87,36.87,0,0,1,18.45,4.89A43.76,43.76,0,0,1,463.66,27.18Zm-6,5.53-3,2.77A32.21,32.21,0,0,0,444.1,25.7a26.92,26.92,0,0,0-25.35-.77,31,31,0,0,0-9.81,7.56,36.32,36.32,0,0,0-6.56,11.32,40.06,40.06,0,0,0,0,27.48,36.15,36.15,0,0,0,6.56,11.31,30.92,30.92,0,0,0,9.81,7.57,27,27,0,0,0,25.35-.77,32.21,32.21,0,0,0,10.61-9.78l2.87,2.89A35.94,35.94,0,0,1,445.7,93.43a30.22,30.22,0,0,1-15,4,29.76,29.76,0,0,1-13.43-3.17,34.72,34.72,0,0,1-11-8.48A40.8,40.8,0,0,1,398.86,73a45.15,45.15,0,0,1,0-31,40.8,40.8,0,0,1,7.36-12.7,34.89,34.89,0,0,1,11-8.49,29.88,29.88,0,0,1,13.43-3.16,30.26,30.26,0,0,1,15.12,4A35.91,35.91,0,0,1,457.69,32.71Zm-6,5.53-3,2.71a23.34,23.34,0,0,0-7.92-7.32,20.23,20.23,0,0,0-10-2.64q-9.54,0-16.28,7.81a27.69,27.69,0,0,0-6.75,18.75,27.69,27.69,0,0,0,6.75,18.75q6.74,7.82,16.28,7.81a20.25,20.25,0,0,0,10.08-2.67,23.7,23.7,0,0,0,7.94-7.35l2.93,2.83a27.62,27.62,0,0,1-9.22,8.51,23.46,23.46,0,0,1-11.73,3.11,23.79,23.79,0,0,1-13.49-4.15,29,29,0,0,1-9.78-11.29,34,34,0,0,1-3.6-15.55A34,34,0,0,1,407.39,42a29.09,29.09,0,0,1,9.78-11.28,23.9,23.9,0,0,1,25.25-1A27.4,27.4,0,0,1,451.67,38.24Zm-6,5.54-3.1,2.7q-4.64-6.63-11.94-6.64A13.88,13.88,0,0,0,419.81,45a18.45,18.45,0,0,0-4.5,12.51,18.45,18.45,0,0,0,4.5,12.51,13.88,13.88,0,0,0,10.85,5.2,13.26,13.26,0,0,0,6.69-1.79,16.21,16.21,0,0,0,5.31-4.91l3,2.88A19.12,19.12,0,0,1,439,77.5a17,17,0,0,1-8.37,2.18,17.37,17.37,0,0,1-13.57-6.48,23.08,23.08,0,0,1-5.62-15.65,23.08,23.08,0,0,1,5.62-15.65,17.37,17.37,0,0,1,13.57-6.48,16.67,16.67,0,0,1,8.42,2.24A19.93,19.93,0,0,1,445.7,43.78Z"/><path class="cls-1" d="M469.15,17.71V13.28h57.58v4.43Zm0,8.85V22.13h57.58v4.43Zm0,8.86V31h57.58v4.43Zm15.36,2.39h3.84v64h-3.84Zm7.67,0H496v64h-3.84Zm7.68,0h3.84v64h-3.84Zm7.68,0h3.84v64h-3.84Z"/><path class="cls-1" d="M570.45,50.85h-6.08Q548.8,50.85,548.8,40q0-4.91,4.83-8.08t14.47-3.17a41.94,41.94,0,0,1,12.58,1.82,25.66,25.66,0,0,1,9.6,5.19l-3,2.71q-6.66-5.3-19.14-5.29-8,0-11.73,1.91c-2.48,1.27-3.73,2.91-3.73,4.91a5.27,5.27,0,0,0,2.61,5c1.75,1,4.78,1.47,9.12,1.47h6.08q14.82,0,22.87,7.78t8,20.81a27.24,27.24,0,0,1-8.88,20.38,30.63,30.63,0,0,1-11,6.28,45.36,45.36,0,0,1-14.82,2.3,51.14,51.14,0,0,1-19.25-3.6,40.41,40.41,0,0,1-14.93-10.05l3.09-2.64a36.63,36.63,0,0,0,13.6,8.76,48.76,48.76,0,0,0,17.49,3.1q14.38,0,22.6-7A22.1,22.1,0,0,0,597.53,75q0-11.13-7-17.64T570.45,50.85Zm0,17.71h-6.08q-14.82,0-22.87-7.78t-8-20.82a27.24,27.24,0,0,1,8.88-20.38,30.76,30.76,0,0,1,10.95-6.27A45.05,45.05,0,0,1,568.1,11a51.13,51.13,0,0,1,19.25,3.59,40.64,40.64,0,0,1,14.93,10.06l-3.1,2.64a36.51,36.51,0,0,0-13.59-8.76,48.77,48.77,0,0,0-17.49-3.11q-14.39,0-22.6,7A22.08,22.08,0,0,0,537.29,40q0,11.13,7,17.65t20,6.52h5.87Q586,64.13,586,75q0,4.92-4.83,8.09t-14.47,3.16a42.06,42.06,0,0,1-12.59-1.81,25.56,25.56,0,0,1-9.59-5.2l3-2.7q6.66,5.28,19.14,5.29,8,0,11.73-1.91c2.48-1.27,3.73-2.91,3.73-4.92a5.25,5.25,0,0,0-2.61-5Q576.95,68.56,570.45,68.56Zm0-8.86h-6.08q-11.19,0-17.22-5.26t-6-14.48a17.75,17.75,0,0,1,7.09-14.35q7.08-5.74,19.88-5.75A46,46,0,0,1,584,22.56a33.28,33.28,0,0,1,12.29,7.63l-3,2.77a30,30,0,0,0-11-6.4,43.69,43.69,0,0,0-14.24-2.27q-11.25,0-17.19,4.42C547,31.66,545,35.42,545,40q0,7.38,4.88,11.35t14.53,4h5.87q11.35,0,17.4,5.26T593.69,75a17.76,17.76,0,0,1-7.09,14.36q-7.08,5.75-19.88,5.75a45.77,45.77,0,0,1-15.92-2.71,33.13,33.13,0,0,1-12.29-7.62l3-2.77a29.91,29.91,0,0,0,11,6.4,43.65,43.65,0,0,0,14.24,2.27q11.25,0,17.19-4.43T589.85,75q0-7.38-4.87-11.34T570.45,59.7Z"/></g></g></svg>