<svg xmlns="http://www.w3.org/2000/svg" viewBox="0 0 440.08 104.21"><defs><style>.cls-1{fill:#231f20;}</style></defs><g id="Layer_2" data-name="Layer 2"><g id="Layer_1-2" data-name="Layer 1"><path class="cls-1" d="M0,0H4.43V99.87H0ZM8.87,0H13.3V99.87H8.87Zm8.87,0h4.43V99.87H17.74ZM71,0h4.43V99.87H71V60.73H31V99.87H26.6V0H31V39H71Zm0,47.7V43.36H31V47.7Zm0,8.69V52H31v4.35ZM79.81,0h4.44V99.87H79.81Zm8.87,0h4.44V99.87H88.68Zm8.87,0H102V99.87H97.55Z"/><path class="cls-1" d="M118.12,99.87h-4.43V13h4.43Zm8.87,0h-4.44V13H127Zm8.87,0h-4.44V13h4.44Zm8.86-21.71h42.44V82.5H144.72v4.34h42.44v4.34H144.72v4.34h42.44v4.35H140.29V13h46.87v4.34H144.72v4.34h42.44v4.34H144.72v4.34h42.44v4.35H144.72V45.53h40v4.34h-40v4.34h40v4.35h-40V62.9h40v4.34h-40Z"/><path class="cls-1" d="M197.81,13h4.43V99.87h-4.43Zm8.87,0h4.43V99.87h-4.43Zm8.87,0H220V99.87h-4.43Zm8.86,0h4.44V78.16h32.7V82.5h-32.7v4.34h32.7v4.34h-32.7v4.34h32.7v4.35H224.41Z"/><path class="cls-1" d="M271.34,13h4.44V99.87h-4.44Zm8.87,0h4.43V99.87h-4.43Zm8.87,0h4.43V99.87h-4.43ZM298,13h4.43V78.16h32.7V82.5h-32.7v4.34h32.7v4.34h-32.7v4.34h32.7v4.35H298Z"/><path class="cls-1" d="M346.41,75a46.26,46.26,0,0,1,0-37.09,48.36,48.36,0,0,1,10.41-15.23,49.48,49.48,0,0,1,15.55-10.19,49.1,49.1,0,0,1,37.88,0A49.6,49.6,0,0,1,425.8,22.67,48.17,48.17,0,0,1,436.2,37.9a46.26,46.26,0,0,1,0,37.09,48.05,48.05,0,0,1-10.4,15.23,49.42,49.42,0,0,1-15.55,10.19,49.1,49.1,0,0,1-37.88,0,49.31,49.31,0,0,1-15.55-10.19A48.24,48.24,0,0,1,346.41,75Zm4.07-35.4a42.22,42.22,0,0,0,0,33.71,43.51,43.51,0,0,0,9.45,13.87,45.21,45.21,0,0,0,62.76,0,43.51,43.51,0,0,0,9.45-13.87,42.22,42.22,0,0,0,0-33.71,43.51,43.51,0,0,0-9.45-13.87,44.67,44.67,0,0,0-14.17-9.26,45.21,45.21,0,0,0-48.59,9.26A43.51,43.51,0,0,0,350.48,39.59Zm4.09,32.05a38,38,0,0,1,0-30.39,39.25,39.25,0,0,1,8.5-12.45,40.16,40.16,0,0,1,12.72-8.33,40.4,40.4,0,0,1,31,0,40.23,40.23,0,0,1,12.71,8.33A38.92,38.92,0,0,1,428,41.25a37.89,37.89,0,0,1,0,30.39,39.08,39.08,0,0,1-8.5,12.46,40.37,40.37,0,0,1-12.71,8.32,40.4,40.4,0,0,1-31,0,40.31,40.31,0,0,1-12.72-8.32A39.4,39.4,0,0,1,354.57,71.64ZM358.64,43a33.82,33.82,0,0,0,0,27A34.76,34.76,0,0,0,366.21,81a36.19,36.19,0,0,0,25.1,10.16,35.28,35.28,0,0,0,13.76-2.74A35.63,35.63,0,0,0,416.4,81,34.63,34.63,0,0,0,424,69.92,33.82,33.82,0,0,0,424,43a34.85,34.85,0,0,0-7.58-11.1,36.11,36.11,0,0,0-50.19,0A35,35,0,0,0,358.64,43Zm5.79,28.73a30.05,30.05,0,0,1,0-30.51,30.47,30.47,0,0,1,11.3-11.07,31.86,31.86,0,0,1,31.16,0,30.54,30.54,0,0,1,11.3,11.07,30.05,30.05,0,0,1,0,30.51,30.39,30.39,0,0,1-11.3,11.07,31.86,31.86,0,0,1-31.16,0A30.32,30.32,0,0,1,364.43,71.7Zm8.06-33.65a24.9,24.9,0,0,0-7.79,18.4,24.9,24.9,0,0,0,7.79,18.39,26.94,26.94,0,0,0,37.63,0,24.86,24.86,0,0,0,7.79-18.39,24.86,24.86,0,0,0-7.79-18.4,26.94,26.94,0,0,0-37.63,0Zm3.15,33.74a20.65,20.65,0,0,1-6.5-15.34,20.67,20.67,0,0,1,6.5-15.35,22.48,22.48,0,0,1,31.34,0,21.36,21.36,0,0,1,0,30.69,22.46,22.46,0,0,1-31.34,0Zm3.14-27.62a17.07,17.07,0,0,0,0,24.55,18,18,0,0,0,25.06,0,17.09,17.09,0,0,0,0-24.55,18,18,0,0,0-25.06,0Z"/></g></g></svg>