<svg xmlns="http://www.w3.org/2000/svg" viewBox="0 0 738.36 189.79"><defs><style>.cls-1{fill:none;stroke:#231f20;stroke-miterlimit:10;stroke-width:4px;}</style></defs><g id="Layer_2" data-name="Layer 2"><g id="Layer_1-2" data-name="Layer 1"><path class="cls-1" d="M94,83.64Q81.89,94.08,59.39,94.08H30.65v51.2H2V2.87H61.27q20.49,0,32.68,11T106.13,48Q106.13,73.21,94,83.64ZM72,32.34Q66.52,27.6,56.65,27.6h-26V69.53h26q9.87,0,15.35-5.12t5.48-16.23Q77.48,37.08,72,32.34Z"/><path class="cls-1" d="M183.81,37.51c.34,0,1.11.08,2.29.14V65.86c-1.68-.19-3.18-.32-4.49-.38s-2.37-.1-3.18-.1q-16.11,0-21.64,10.82Q153.7,82.29,153.7,95v50.33H126.83V40H152.3V58.33q6.18-10.53,10.77-14.4,7.49-6.47,19.48-6.47A11.46,11.46,0,0,1,183.81,37.51Z"/><path class="cls-1" d="M286.86,132.4q-12.92,16.46-39.23,16.46T208.39,132.4q-12.91-16.45-12.92-39.63,0-22.78,12.92-39.48t39.24-16.7q26.31,0,39.23,16.7t12.93,39.48Q299.79,115.95,286.86,132.4Zm-21.35-15.22q6.28-8.58,6.28-24.41t-6.28-24.36q-6.27-8.53-18-8.54t-18,8.54q-6.33,8.53-6.32,24.36t6.32,24.41q6.31,8.59,18,8.59T265.51,117.18Z"/><path class="cls-1" d="M307.28,165.48l3.18.24c.63,0,1.19.05,1.69.05a8.18,8.18,0,0,0,6-2q2-2,2-7.68V40.45H346.8V156.59q0,15.93-6.09,23.57t-23.88,7.63q-1.21,0-3.6-.09c-1.6-.07-3.58-.13-6-.2ZM346.8,27.41H320.11V2H346.8Z"/><path class="cls-1" d="M438.69,42.1a42,42,0,0,1,17.64,15.58,52.77,52.77,0,0,1,8.13,21.78,138.71,138.71,0,0,1,.88,20.9H391q.62,15.84,10.67,22.22a26.49,26.49,0,0,0,14.72,4q9.12,0,14.82-4.83a23.15,23.15,0,0,0,5.49-7.25h27.24q-1.06,9.38-9.89,19-13.71,15.36-38.4,15.36a54.56,54.56,0,0,1-35.95-13q-15.58-13-15.58-42.16,0-27.36,14.06-42t36.5-14.6A56.57,56.57,0,0,1,438.69,42.1ZM398.76,65.89q-5.65,6-7.11,16.3h46q-.72-11-7.11-16.64a23,23,0,0,0-15.83-5.68Q404.42,59.87,398.76,65.89Z"/><path class="cls-1" d="M539.89,77.75A24.83,24.83,0,0,0,536,67.12q-4.5-6.38-14-6.38-13.53,0-18.5,13.82-2.62,7.32-2.62,19.47,0,11.56,2.62,18.6,4.79,13.14,18,13.14,9.38,0,13.33-5.22T539.7,107H567a46.84,46.84,0,0,1-8.81,23.77q-12.55,18.08-37.21,18.07t-36.28-15.07Q473,118.72,473,94.7q0-27.09,12.84-42.17T521.3,37.46q19.22,0,31.45,8.89t14.48,31.4Z"/><path class="cls-1" d="M575,60.55V40.94h14.23V11.57h26.41V40.94h16.57V60.55H615.65V116.2q0,6.48,1.59,8.07t9.74,1.59c.81,0,1.67,0,2.58,0s1.79-.08,2.66-.14v20.58l-12.64.48q-18.92.68-25.84-6.76-4.5-4.74-4.5-14.59V60.55Z"/><path class="cls-1" d="M670.06,111.66c.56,4.9,1.78,8.37,3.67,10.44q5,5.5,18.44,5.5,7.91,0,12.56-2.41c3.1-1.61,4.66-4,4.66-7.25a7.87,7.87,0,0,0-3.75-7q-3.76-2.42-27.93-8.31-17.38-4.44-24.51-11.11t-7.12-18.94q0-14.58,11.12-25.07T688.5,37q19.14,0,31.2,7.87t13.85,27.2H706.86A16.69,16.69,0,0,0,704,63.64q-4.43-5.6-15-5.6-8.73,0-12.44,2.8t-3.71,6.57a7.22,7.22,0,0,0,4,6.86q3.93,2.22,27.86,7.63,15.95,3.87,23.91,11.69a27,27,0,0,1,7.87,19.81q0,15.64-11.31,25.55t-34.95,9.91q-24.12,0-35.61-10.48T643,111.66Z"/></g></g></svg>