<svg xmlns="http://www.w3.org/2000/svg" viewBox="0 0 477.15 130.68"><defs><style>.cls-1{fill:none;stroke:#231f20;stroke-miterlimit:10;stroke-width:5px;}</style></defs><g id="Layer_2" data-name="Layer 2"><g id="Layer_3" data-name="Layer 3"><path class="cls-1" d="M84.89,9.71h29.62V126.84H84.89V80.76H32.12v46.08H2.5V9.71H32.12V58.64H84.89Z"/><path class="cls-1" d="M232.78,113.77q-17.26,14.42-40.53,14.41t-38.44-12.65q-15.19-12.65-15.19-33.93t15.47-33.85q15.48-12.57,36.55-12.57T226.42,46.4q14.72,11.24,14.72,30.84V90.65H166.72Q168,98,175.45,102.71a30.53,30.53,0,0,0,16.71,4.69q15,0,24.68-8.88ZM205.45,60.31A23.48,23.48,0,0,0,191.11,56a28,28,0,0,0-15.47,4.52,17.08,17.08,0,0,0-8.16,12.23h44.8A17.19,17.19,0,0,0,205.45,60.31Z"/><path class="cls-1" d="M290.12,126.84H261.64V2.5h28.48Z"/><path class="cls-1" d="M345.55,126.84H317.07V2.5h28.48Z"/><path class="cls-1" d="M474.65,81.76q0,19.6-15.38,33t-38.64,13.4q-23.25,0-38.63-13.4t-15.38-33q0-19.61,15.38-33.09t38.63-13.49q23.26,0,38.64,13.49T474.65,81.76Zm-79.36,0q0,11.07,7.12,18t18.22,7q11.12,0,18.23-7t7.12-18q0-11.06-7.12-18.09t-18.23-7q-11.1,0-18.22,7T395.29,81.76Z"/></g></g></svg>